Coordinates
version=1
nRows=11
nColumns=40
inDegrees=yes

Units are S.I. units (second, meters, Newtons, ...)
Angles are in degrees.

endheader
time	pelvis_tilt	pelvis_list	pelvis_rotation	pelvis_tx	pelvis_ty	pelvis_tz	hip_flexion_r	hip_adduction_r	hip_rotation_r	knee_angle_r	knee_angle_r_beta	ankle_angle_r	subtalar_angle_r	mtp_angle_r	hip_flexion_l	hip_adduction_l	hip_rotation_l	knee_angle_l	knee_angle_l_beta	ankle_angle_l	subtalar_angle_l	mtp_angle_l	lumbar_extension	lumbar_bending	lumbar_rotation	arm_flex_r	arm_add_r	arm_rot_r	elbow_flex_r	pro_sup_r	wrist_flex_r	wrist_dev_r	arm_flex_l	arm_add_l	arm_rot_l	elbow_flex_l	pro_sup_l	wrist_flex_l	wrist_dev_l
      0.00000000	     -3.38201144	     -0.33922273	      9.41793874	     -1.55513000	      0.93946007	     -1.02275452	     30.38705995	     -8.81281104	    -13.61093285	    -22.26566194	     -0.38860911	     -3.85808109	     -0.01616883	      0.74707590	     -4.01890881	     -3.56602574	     17.32968917	     -9.46725250	     -0.16523473	     10.49501927	      2.52244321	     -3.65287608	     -8.35588997	     -0.95754567	     -3.59859550	      1.96501433	     -7.06126548	    -21.32704299	     20.44392628	     89.95437384	      0.00000000	      0.00000000	      3.58620389	     11.44605876	    -10.96045290	     29.07479761	     89.95437384	      0.00000000	      0.00000000
      0.01000000	     -3.45253261	     -0.26354285	      9.31850831	     -1.55134890	      0.93885842	     -1.02210699	     30.61603101	     -8.84799084	    -13.82035860	    -22.18842624	     -0.38726109	     -3.80621084	      0.08489778	      0.79395985	     -4.17892615	     -3.57904722	     17.40318319	     -9.54085914	     -0.16651941	     10.53634130	      2.50849893	     -3.74663883	     -8.38712174	     -1.05452939	     -3.68469239	      2.02320291	     -6.99756857	    -21.22430016	     20.40418725	     89.95437384	      0.00000000	      0.00000000	      3.37886241	     11.44259839	    -11.04066651	     28.99266702	     89.95437384	      0.00000000	      0.00000000
      0.02000000	     -3.50734793	     -0.23779311	      9.25891003	     -1.54767137	      0.93823854	     -1.02179103	     30.80122049	     -8.87396726	    -14.11437865	    -22.06660365	     -0.38513489	     -3.89450761	      0.18598789	      0.86596687	     -4.34363098	     -3.56112159	     17.46717582	     -9.61351371	     -0.16778747	     10.62294579	      2.52435979	     -3.85498024	     -8.40707499	     -1.05822788	     -3.68524904	      2.07463912	     -7.03373751	    -21.17603849	     20.30368304	     89.95437384	      0.00000000	      0.00000000	      3.18111853	     11.30703455	    -11.17470990	     28.84867699	     89.95437384	      0.00000000	      0.00000000
      0.03000000	     -3.61450936	     -0.17588660	      9.22048917	     -1.54412394	      0.93743175	     -1.02084645	     31.10053151	     -8.88997301	    -14.19486480	    -22.14419152	     -0.38648905	     -3.91814393	      0.18609458	      0.87747066	     -4.36038986	     -3.51072114	     17.43559037	     -9.86630477	     -0.17219950	     10.59201764	      2.51024446	     -3.86108509	     -8.52384483	     -1.19437640	     -3.71865920	      2.03671897	     -6.93126033	    -21.07316558	     20.49361531	     89.95437384	      0.00000000	      0.00000000	      3.14262900	     11.46763483	    -11.20503286	     28.79888941	     89.95437384	      0.00000000	      0.00000000
      0.04000000	     -3.45019196	     -0.09741808	      9.08116578	     -1.53973862	      0.93703267	     -1.02058576	     31.03574966	     -8.99460223	    -14.85956478	    -22.20768923	     -0.38759730	     -4.05763096	      0.20396041	      1.01004485	     -4.93053319	     -3.54544129	     17.61613607	     -9.71907773	     -0.16962991	     10.90253640	      2.47153764	     -4.11010042	     -8.74948557	     -1.20152376	     -3.54876622	      2.09149649	     -7.04734471	    -21.08040245	     20.27205087	     89.95437384	      0.00000000	      0.00000000	      3.26131244	     11.37617404	    -11.75714110	     28.15574588	     89.95437384	      0.00000000	      0.00000000
      0.05000000	     -3.24301387	     -0.14629810	      9.12800717	     -1.53533484	      0.93673874	     -1.02026399	     30.79395318	     -8.96403948	    -15.46333857	    -22.15725605	     -0.38671707	     -3.89701838	      0.18343912	      1.23362868	     -5.48535537	     -3.37387475	     17.75726092	     -9.59716540	     -0.16750214	     10.79824098	      2.38660274	     -4.49037394	     -9.03167658	     -1.06497715	     -3.50683835	      2.03074859	     -7.07751998	    -21.35156995	     20.34484977	     89.95437384	      0.00000000	      0.00000000	      3.25993137	     11.26080346	    -12.28227709	     27.68252864	     89.95437384	      0.00000000	      0.00000000
      0.06000000	     -3.22429351	     -0.01738759	      9.09792238	     -1.53094430	      0.93601999	     -1.01951656	     30.85558405	     -9.08357604	    -15.86488352	    -22.36287279	     -0.39030576	     -3.66421403	     -0.12348894	      1.34640684	     -5.80258579	     -3.40165866	     17.83013796	     -9.62749667	     -0.16803152	     10.85150494	      2.14776844	     -4.78780760	     -9.17044615	     -1.18791973	     -3.72079907	      2.26296694	     -7.06515493	    -21.34613292	     20.05336524	     89.95437384	      0.00000000	      0.00000000	      3.22958994	     11.36232576	    -12.28490539	     27.29042192	     89.95437384	      0.00000000	      0.00000000
      0.07000000	     -3.36744895	      0.10287080	      9.06841275	     -1.52642762	      0.93507139	     -1.01882694	     31.00456318	     -9.20423674	    -16.22116436	    -22.36801724	     -0.39039555	     -3.55346516	     -0.31058664	      1.37982061	     -5.93490469	     -3.44684692	     17.99498811	     -9.69933823	     -0.16928539	     10.93022202	      2.13012296	     -4.86155765	     -9.13924477	     -1.31806406	     -3.71548445	      2.20992864	     -7.08826376	    -21.29169296	     20.10393977	     89.95437384	      0.00000000	      0.00000000	      3.11941492	     11.43611040	    -12.36467059	     26.99110660	     89.95437384	      0.00000000	      0.00000000
      0.08000000	     -3.23932232	      0.19518327	      9.05270525	     -1.52163116	      0.93450299	     -1.01820417	     30.91260524	     -9.29860086	    -16.71103158	    -22.65391152	     -0.39538534	     -3.36863412	     -0.78969649	      1.55024464	     -6.41912451	     -3.40418694	     18.17720057	     -9.70310146	     -0.16935107	     10.84461365	      1.94368670	     -5.17177871	     -9.34296878	     -1.37335695	     -3.69844539	      2.24565517	     -7.15401782	    -21.35876369	     20.01767829	     89.95437384	      0.00000000	      0.00000000	      3.28267165	     11.38471875	    -12.60366253	     26.18513870	     89.95437384	      0.00000000	      0.00000000
      0.09000000	     -3.37251025	      0.29105977	      9.04346622	     -1.51666948	      0.93346898	     -1.01734870	     30.98862931	     -9.37921822	    -17.06097101	    -22.71011240	     -0.39636623	     -3.18240082	     -1.08990280	      1.59098269	     -6.58774677	     -3.41394607	     18.30153560	     -9.76014478	     -0.17034666	     10.94729806	      1.88952075	     -5.27119990	     -9.29405059	     -1.45299621	     -3.80124685	      2.23078811	     -7.17329493	    -21.31716786	     20.01824578	     89.95437384	      0.00000000	      0.00000000	      3.13378685	     11.45490534	    -12.62493090	     25.80619805	     89.95437384	      0.00000000	      0.00000000
      0.10000000	     -3.42101178	      0.34934651	      9.03397036	     -1.51152824	      0.93255657	     -1.01649838	     31.01993118	     -9.44236291	    -17.49353549	    -22.98288857	     -0.40112708	     -3.04650072	     -1.53327879	      1.64588518	     -6.84606102	     -3.34119819	     18.46595217	     -9.85256298	     -0.17195966	     11.04106242	      1.87237501	     -5.39212912	     -9.29493581	     -1.48481416	     -3.87076896	      2.27539488	     -7.22312210	    -21.31338638	     19.95862810	     89.95437384	      0.00000000	      0.00000000	      3.09467643	     11.44557070	    -12.58917137	     25.19096541	     89.95437384	      0.00000000	      0.00000000
